<svg viewBox="-0.76 0 20.035 20.035" xmlns="http://www.w3.org/2000/svg" fill="#00000000" stroke="#00000000"><g id="SVGRepo_bgCarrier" stroke-width="0"></g><g id="SVGRepo_tracerCarrier" stroke-linecap="round" stroke-linejoin="round"></g><g id="SVGRepo_iconCarrier"> <g id="cold" transform="translate(-2.9 -2)"> <path id="secondary" fill="#00000000" d="M11,11.42V5A2,2,0,0,0,7,5v6.42a5,5,0,1,0,4,0ZM9,18a2,2,0,1,1,2-2A2,2,0,0,1,9,18Z"></path> <path id="primary" d="M16,10l2,2,2-2" fill="none" stroke="#ff6600" stroke-linecap="round" stroke-linejoin="round" stroke-width="2"></path> <path id="primary-2" data-name="primary" d="M18,3v9M7,16a2,2,0,1,0,2-2A2,2,0,0,0,7,16Zm7,0a5,5,0,1,1-7-4.58V5A2,2,0,0,1,9,3H9a2,2,0,0,1,2,2v6.42A5,5,0,0,1,14,16Z" fill="none" stroke="#ff6600" stroke-linecap="round" stroke-linejoin="round" stroke-width="2"></path> </g> </g></svg>